# xmcd
#
# Track frame offsets: 
#        150
#        22121
#        45711
#        66875
#        90080
#        109849
#        134894
#        151002
#        175150
#        195832
#        212676
#        238698
#        256562
#        272104
#
# Disc length: 3872 seconds
#
# Revision: 1
# Processed by: cddbd v1.5.2PL0 Copyright (c) Steve Scherf et al.
# Submitted via: ExactAudioCopy v0.99pb5
#
DISCID=b70f1e0e
DTITLE=Zoot Sims - Modern Jazz 099 - Modern Mainstream - Zoot Sims
DYEAR=2008
DGENRE=Jazz
TTITLE0=9:20 Special
TTITLE1=The Man I Love
TTITLE2=55th And State
TTITLE3=The Blue Room
TTITLE4=Gus's Blues
TTITLE5=That Old Feeling
TTITLE6=Bohemia After Dark
TTITLE7=Woody'n You
TTITLE8=Blinuet
TTITLE9=The Trouble With Me Is You
TTITLE10=Zonkin'
TTITLE11=Pegasus
TTITLE12=Noshin'
TTITLE13=Minor-Minor
EXTD=YEAR: 2008
EXTT0=
EXTT1=
EXTT2=
EXTT3=
EXTT4=
EXTT5=
EXTT6=
EXTT7=
EXTT8=
EXTT9=
EXTT10=
EXTT11=
EXTT12=
EXTT13=
PLAYORDER=
